<?xml version="1.0" encoding="UTF-8" standalone="no"?>
<!-- Created with Inkscape (http://www.inkscape.org/) -->

<svg
   version="1.1"
   id="svg381"
   width="1333.3333"
   height="1333.3333"
   viewBox="0 0 1333.3333 1333.3333"
   sodipodi:docname="powwu-outline.svg"
   inkscape:version="1.2.2 (b0a8486541, 2022-12-01)"
   xmlns:inkscape="http://www.inkscape.org/namespaces/inkscape"
   xmlns:sodipodi="http://sodipodi.sourceforge.net/DTD/sodipodi-0.dtd"
   xmlns="http://www.w3.org/2000/svg"
   xmlns:svg="http://www.w3.org/2000/svg">
  <defs
     id="defs385" />
  <sodipodi:namedview
     id="namedview383"
     pagecolor="#ffffff"
     bordercolor="#666666"
     borderopacity="1.0"
     inkscape:showpageshadow="2"
     inkscape:pageopacity="0.0"
     inkscape:pagecheckerboard="0"
     inkscape:deskcolor="#d1d1d1"
     showgrid="false"
     inkscape:zoom="1.0470001"
     inkscape:cx="620.34378"
     inkscape:cy="836.67614"
     inkscape:window-width="2222"
     inkscape:window-height="1436"
     inkscape:window-x="1297"
     inkscape:window-y="51"
     inkscape:window-maximized="1"
     inkscape:current-layer="g387" />
  <g
     inkscape:groupmode="layer"
     inkscape:label="Image"
     id="g387">
    <path
       id="path451"
       style="fill:#ffffff;stroke-width:1.33333"
       d="m 798.97315,914.36451 c 9.69434,-3.6271 14.19056,-8.65182 34.0262,-38.02539 18.51313,-27.41513 22.4464,-31.31655 31.57221,-31.31655 7.5344,0 13.9724,4.36047 32.9999,22.35094 16.762,15.84846 26.3605,21.76696 39.7307,24.4983 10.5807,2.1615 17.2203,0.003 26.245,-8.53221 16.3939,-15.50471 27.1884,-34.2706 36.99634,-64.31703 7.8086,-23.92182 9.2818,-32.58799 8.4177,-49.51885 -1.1278,-22.09658 -7.3341,-31.13188 -21.39194,-31.14282 -7.2898,-0.005 -12.0584,2.09585 -17.1149,7.54264 -4.8578,5.23276 -6.4515,8.7131 -15.7917,34.48634 -10.8394,29.9102 -13.4671,33.96603 -22.0058,33.96603 -6.1407,0 -11.3535,-3.87495 -32.0873,-23.85233 -22.952,-22.11476 -30.9063,-27.38403 -41.2674,-27.3374 -8.42021,0.0379 -15.41133,3.63262 -23.49745,12.08204 -7.77206,8.12121 -29.53439,40.2717 -37.08403,54.7859 -7.76583,14.92983 -12.50505,18.72145 -22.08521,17.66935 -5.67683,-0.62346 -11.13726,-5.0514 -35.16163,-28.51322 -27.71617,-27.06714 -34.23961,-31.50101 -46.34669,-31.50101 -3.84161,0 -8.67381,0.63998 -10.73821,1.42215 -13.50255,5.11597 -18.10439,21.50117 -10.62627,37.83556 4.664,10.18752 22.67921,28.14865 38.72703,38.61077 7.0983,4.62764 18.86684,14.51021 29.33333,24.63253 9.6135,9.2974 19.77361,18.31459 22.57801,20.03826 11.39956,7.0063 23.14493,8.4114 34.57211,4.136 z M 591.30214,824.99168 c 20.13785,-1.95655 31.86213,-8.98695 34.85178,-20.89867 2.18127,-8.69083 -4.73908,-20.06771 -14.95594,-24.58718 -11.19235,-4.95096 -25.68016,-5.37356 -178.5625,-5.20852 -139.38155,0.15047 -165.35623,0.73976 -176.55764,4.00563 -12.08925,3.52472 -20.33125,13.62053 -20.33125,24.90422 0,12.67208 8.98972,19.71183 27.68969,21.68352 15.09984,1.59208 311.57866,1.68341 327.86586,0.10093 z m -46.18101,-66.27842 c 7.90526,-6.18368 11.05123,-20.32017 6.68614,-29.3577 -5.36713,-11.11217 -7.35827,-12.18147 -33.38446,-16.00172 -34.25504,-5.02812 -34.12198,-4.95738 -67.95305,-10.36146 -22.7399,-3.63241 -31.30499,-4.32329 -36.86983,-5.0915 -11.76909,-1.62469 -25.4751,-4.47531 -52.19691,-7.53741 -21.22606,-2.43233 -27.47351,-3.97787 -37.34245,-4.63325 -16.13581,-1.07156 -38.09954,-2.24325 -67.92317,-4.93506 -32.04471,-2.89228 -38.9328,4.91239 -41.06708,18.06436 -2.48259,15.29843 12.90047,27.30948 52.94416,30.13074 11.11006,0.78275 27.75257,2.33728 37.95433,3.55092 12.62841,1.50233 25.23034,2.60002 35.43625,3.47581 24.08705,2.06695 32.64145,2.21129 50.26268,4.30463 9.31994,1.10718 9.32339,1.16547 32.74624,4.11908 20.39838,2.57221 20.60357,2.85117 49.31071,7.34222 30.99145,4.84842 31.57976,4.82904 44.24412,6.40747 14.18221,1.76761 20.02213,6.10026 27.15232,0.52287 z m 103.23015,-8.98782 c 52.68441,-12.97065 72.56115,-85.73905 46.15558,-129.94342 -18.08706,-42.44653 -79.88996,-70.04971 -117.07693,-34.10225 -43.50851,37.87131 -36.78969,111.02277 3.86049,149.15402 17.52832,16.963 44.1338,19.06241 67.06086,14.89165 z m 352.27662,-70.09849 c 60.1636,-6.3149 63.2173,-89.32592 35.6047,-129.07044 -22.4615,-41.17831 -86.72079,-57.78119 -117.42661,-16.26532 -49.3999,53.08098 -1.19375,159.06896 73.86933,146.06424 z M 574.63547,1115.7109 C 442.94216,1105.512 309.73793,1082.4902 188.63548,1027.6411 122.5635,997.11816 50.505154,943.28039 51.085052,863.17106 61.244189,787.01234 80.460309,709.50218 123.71451,644.78508 c 31.37268,-43.90793 77.69673,-75.66796 108.70677,-119.83352 19.91082,-58.67859 -8.50936,-129.06919 27.25052,-183.34064 43.99596,-22.08855 94.69653,5.00116 140.96196,8.09204 53.19284,14.77723 107.23043,30.12605 156.16241,56.09505 80.97019,21.36861 165.47964,11.3034 248.33886,14.54509 26.98392,-2.2543 52.96568,4.46157 79.52682,6.91994 69.0393,-20.80658 134.73605,-52.63457 205.23585,-69.23169 42.579,-23.79828 96.7604,-4.11963 95.1817,49.44979 0.1393,45.07459 34.4481,106.85725 -7.4182,141.17674 -29.1494,25.65504 -117.0536,22.8642 -100.2558,71.88068 43.6929,36.66633 134.9139,-46.11965 142.3728,-20.39093 20.8929,10.97339 -92.7646,42.20472 -132.656,67.11903 -54.3508,18.60008 -12.7559,58.6943 31.7035,38.34819 43.7479,-22.01905 89.3957,-52.10199 129.1085,-36.44635 24.5184,51.5205 20.0845,110.63349 32.1306,165.41464 1.0172,35.58625 4.859,73.88939 -18.5759,104.04312 -32.987,43.20949 -77.7473,74.22144 -127.7432,94.67484 -103.1456,43.0787 -213.68451,68.2709 -324.95088,77.6136 -77.19108,10.48 -156.36306,3.7794 -234.15935,4.7962 z" />
  </g>
</svg>
